<svg width="49" height="47" viewBox="0 0 49 47" fill="none" xmlns="http://www.w3.org/2000/svg">
<path d="M11.25 15.9248C11.25 18.7553 8.95549 21.0498 6.12502 21.0498C3.29455 21.0498 1 18.7553 1 15.9248C1 13.0944 3.29455 10.7998 6.12502 10.7998C8.95549 10.7998 11.25 13.0944 11.25 15.9248Z" fill="white" fill-opacity="0.5" stroke="#727272" stroke-width="2"/>
<path d="M22.2754 6.12502C22.2754 8.95549 19.9809 11.25 17.1504 11.25C14.3199 11.25 12.0254 8.95549 12.0254 6.12502C12.0254 3.29455 14.3199 1 17.1504 1C19.9809 1 22.2754 3.29455 22.2754 6.12502Z" fill="white" fill-opacity="0.5" stroke="#727272" stroke-width="2"/>
<path d="M36.9746 6.12502C36.9746 8.95549 34.6801 11.25 31.8496 11.25C29.0192 11.25 26.7246 8.95549 26.7246 6.12502C26.7246 3.29455 29.0192 1 31.8496 1C34.6801 1 36.9746 3.29455 36.9746 6.12502Z" fill="white" fill-opacity="0.5" stroke="#727272" stroke-width="2"/>
<path d="M48 15.9248C48 18.7553 45.7055 21.0498 42.875 21.0498C40.0445 21.0498 37.75 18.7553 37.75 15.9248C37.75 13.0944 40.0445 10.7998 42.875 10.7998C45.7055 10.7998 48 13.0944 48 15.9248Z" fill="white" fill-opacity="0.5" stroke="#727272" stroke-width="2"/>
<path d="M30.7455 22.576L30.7455 22.576L30.7496 22.5807C32.1293 24.18 33.3554 25.625 34.6204 27.116C35.3164 27.9362 36.0241 28.7704 36.7757 29.6518L36.9546 29.9346L37.014 30.0285L37.0926 30.1071C37.346 30.3605 37.5992 30.6108 37.8503 30.8591C39.2342 32.2272 40.5591 33.537 41.5489 34.9986C42.6764 36.6636 43.3084 38.4462 42.9981 40.6031C42.345 42.8164 40.779 44.9145 38.0681 45.5213C37.7773 45.5739 37.2237 45.5668 36.3439 45.482C35.6209 45.4123 34.7659 45.3007 33.7889 45.1732C33.6032 45.149 33.4131 45.1242 33.2186 45.099C30.8063 44.7863 27.8041 44.4231 24.6957 44.4231H24.2547C21.1454 44.4231 18.1421 44.7927 15.7306 45.1083C15.559 45.1308 15.3907 45.153 15.2258 45.1746C14.2219 45.3067 13.3457 45.422 12.6079 45.4922C11.7226 45.5764 11.1728 45.5793 10.8895 45.5229C8.17177 44.9177 6.60602 42.8395 5.95323 40.6066C5.65671 38.4727 6.33643 36.6115 7.53125 34.8489C8.61292 33.2533 10.0604 31.8154 11.5107 30.3746C11.7072 30.1795 11.9037 29.9843 12.0993 29.7886L12.1253 29.7626L12.1494 29.7348C13.5337 28.1302 14.7696 26.6735 16.0388 25.1777C16.7469 24.3431 17.4654 23.4963 18.2258 22.6048C19.3458 21.3186 20.6227 20.1636 22.0801 19.6639L22.0888 19.661L22.0975 19.6578C22.3165 19.5782 22.5316 19.5198 22.7431 19.4814L22.7431 19.4814L22.7531 19.4795C23.2807 19.378 23.8459 19.375 24.4997 19.375C25.1489 19.375 25.725 19.3772 26.2422 19.4588C26.4504 19.4972 26.662 19.5549 26.8775 19.6333L26.8862 19.6365L26.8949 19.6394C28.3568 20.1407 29.6598 21.3014 30.7455 22.576Z" fill="white" fill-opacity="0.5" stroke="#727272" stroke-width="2"/>
</svg>
