<svg width="10" height="10" viewBox="0 0 10 10" fill="none" xmlns="http://www.w3.org/2000/svg">
<g clip-path="url(#clip0_136_175)">
<path d="M4.99967 0.833008C3.38717 0.833008 2.08301 2.13717 2.08301 3.74967C2.08301 4.47467 2.29134 5.15384 2.67051 5.76634C3.06634 6.40801 3.58717 6.95801 3.98717 7.59967C4.18301 7.91217 4.32467 8.20384 4.47467 8.54134C4.58301 8.77051 4.67051 9.16634 4.99967 9.16634C5.32884 9.16634 5.41634 8.77051 5.52051 8.54134C5.67467 8.20384 5.81217 7.91217 6.00801 7.59967C6.40801 6.96217 6.92884 6.41217 7.32467 5.76634C7.70801 5.15384 7.91634 4.47467 7.91634 3.74967C7.91634 2.13717 6.61217 0.833008 4.99967 0.833008ZM4.99967 4.89551C4.42467 4.89551 3.95801 4.42884 3.95801 3.85384C3.95801 3.27884 4.42467 2.81217 4.99967 2.81217C5.57467 2.81217 6.04134 3.27884 6.04134 3.85384C6.04134 4.42884 5.57467 4.89551 4.99967 4.89551Z" fill="#777777"/>
</g>
<defs>
<clipPath id="clip0_136_175">
<rect width="10" height="10" fill="white"/>
</clipPath>
</defs>
</svg>
